<?xml version="1.0" encoding="UTF-8"?>
<svg version="1.1" xmlns="http://www.w3.org/2000/svg" width="512" height="512">
<style>
	.bg { fill: #ffffff; }
	@media (prefers-color-scheme: dark) {
		.bg { fill: #1f1f1f; }
	}
</style>
<rect class="bg" x="0" y="0" width="100%" height="100%"/>
<path d="M0 0 C1.02867187 0.53496094 2.05734375 1.06992187 3.1171875 1.62109375 C10.29608306 5.57587973 16.20698867 10.21680734 22 16 C23.04800781 17.03060547 23.04800781 17.03060547 24.1171875 18.08203125 C44.88701629 39.86206572 51.75850991 74.02073524 54 103 C55.19753906 103.03738281 56.39507812 103.07476562 57.62890625 103.11328125 C75.0459148 103.76940759 93.99404993 104.9690865 107 118 C114.73901978 128.1003688 117.51777323 139.9339771 119.1875 152.3125 C119.4340332 153.99375977 119.4340332 153.99375977 119.68554688 155.70898438 C121.5055998 168.55251574 122.15846399 181.34937834 122.203125 194.3125 C122.20595238 194.96830048 122.20877975 195.62410095 122.21169281 196.29977417 C122.22654714 199.78383761 122.23585794 203.26786127 122.24023438 206.75195312 C122.24457519 209.55547411 122.25831435 212.35867972 122.28125 215.16210938 C122.8445547 285.51630482 122.8445547 285.51630482 105 311 C104.4225 311.86625 103.845 312.7325 103.25 313.625 C95.72538962 321.56764429 84.36062972 326.6331327 73.4128418 327.11352539 C72.51734619 327.10828857 71.62185059 327.10305176 70.69921875 327.09765625 C69.72275391 327.09443359 68.74628906 327.09121094 67.74023438 327.08789062 C66.73283203 327.07951172 65.72542969 327.07113281 64.6875 327.0625 C63.66076172 327.05798828 62.63402344 327.05347656 61.57617188 327.04882812 C59.05072118 327.03708184 56.52539095 327.02065565 54 327 C54.03480469 327.84433594 54.06960938 328.68867188 54.10546875 329.55859375 C55.43168877 392.26985489 55.43168877 392.26985489 39.09765625 411.8984375 C26.83209666 424.18683799 10.07742363 426.2120122 -6.4375 426.25 C-24.62994207 426.24417506 -42.23414928 424.6219703 -55.87890625 411.3046875 C-71.4741256 394.35960571 -69.31100081 366.45905563 -69 345 C-74.94 344.67 -80.88 344.34 -87 344 C-86.96519531 346.18238281 -86.93039063 348.36476563 -86.89453125 350.61328125 C-86.87102788 352.76471656 -86.85287307 354.9161367 -86.83520508 357.06762695 C-86.82026687 358.54458181 -86.79990869 360.02149349 -86.77368164 361.49829102 C-86.56145171 373.7701747 -87.29498475 385.83552851 -95 396 C-105.17019257 406.17019257 -118.64427114 409.19594869 -132.58032227 409.38037109 C-149.44439915 409.35435906 -164.9039492 408.70167981 -178.20703125 397.0703125 C-186.764836 388.40136743 -189.54946501 376.38285434 -191.875 364.75 C-192.11911621 363.54311523 -192.36323242 362.33623047 -192.61474609 361.09277344 C-200.64102282 320.26469756 -206.36118414 277.65519977 -207 236 C-207.02046387 234.92476074 -207.04092773 233.84952148 -207.06201172 232.74169922 C-207.35109736 215.4849588 -206.72829425 198.39149145 -205.57142639 181.18234253 C-205.36837199 178.1222986 -205.18243999 175.06133407 -205 172 C-204.94312012 171.13262207 -204.88624023 170.26524414 -204.82763672 169.37158203 C-204.71032631 166.43748114 -204.65022157 164.51949341 -206.3203125 162.0390625 C-206.91585937 161.57242188 -207.51140625 161.10578125 -208.125 160.625 C-217.1375142 152.55925497 -222.17462433 139.9679472 -223 128 C-223.93183292 109.8525538 -219.99346402 94.4478323 -209 80 C-208.278125 78.989375 -207.55625 77.97875 -206.8125 76.9375 C-200.17381359 69.25403672 -190.24480419 63.04361075 -181 59 C-180.01 59 -179.02 59 -178 59 C-177.79375 58.236875 -177.5875 57.47375 -177.375 56.6875 C-167.07488626 29.06446769 -142.55479575 8.81591074 -116.4609375 -3.25073242 C-109.15318295 -6.50054354 -101.73122097 -8.97804865 -94 -11 C-92.83210937 -11.3196875 -91.66421875 -11.639375 -90.4609375 -11.96875 C-60.92991561 -18.79819403 -26.81731308 -13.95734837 0 0 Z " fill="#000000" transform="translate(306,45)"/>
<path d="M0 0 C0.99386719 0.46277344 1.98773438 0.92554688 3.01171875 1.40234375 C20.4813589 10.1980761 30.49278834 25.83976296 36.65478516 43.92138672 C63.7173411 126.90913384 52.02514595 226.42633976 46 311.875 C45.93403374 312.81341988 45.86806747 313.75183975 45.80010223 314.71869659 C45.41509528 320.18599078 45.02392206 325.65279258 44.62434006 331.11904144 C44.50234811 332.79094305 44.38141281 334.46292219 44.26167679 336.13498688 C43.6598587 344.5034468 42.9806401 352.86359494 42.09765625 361.20751953 C42.03299667 361.88922651 41.9683371 362.57093349 41.90171814 363.27329826 C41.12228554 370.19103071 38.82728547 375.88875656 34 381 C21.4859759 389.36396509 3.51445133 388.28617142 -10.83203125 386.53125 C-18.72984927 384.82799785 -25.07098931 381.30452488 -30.4375 375.25 C-34.11678245 367.5970925 -34.28992157 359.30859473 -34.30859375 350.953125 C-34.33372816 348.87109064 -34.35912651 346.78905945 -34.38476562 344.70703125 C-34.41358474 341.46598978 -34.43764388 338.22500289 -34.45629883 334.98388672 C-34.47795679 331.82753567 -34.51736168 328.67177219 -34.55859375 325.515625 C-34.55876747 324.06703094 -34.55876747 324.06703094 -34.5589447 322.58917236 C-34.63606508 317.33799933 -34.97503492 313.49718297 -38 309 C-41.36511294 306.75659137 -42.51578524 306.74207535 -46.45507812 306.71289062 C-47.57474976 306.69947632 -48.69442139 306.68606201 -49.84802246 306.67224121 C-51.06348755 306.66696411 -52.27895264 306.66168701 -53.53125 306.65625 C-55.42164001 306.6343158 -55.42164001 306.6343158 -57.35021973 306.61193848 C-61.40011734 306.56535348 -65.44996188 306.53096967 -69.5 306.5 C-101.15328136 306.25421055 -101.15328136 306.25421055 -115.42773438 304.41992188 C-118.33882672 304.0777213 -121.07654398 303.91175547 -124 304 C-124.37046197 307.5957637 -124.37046197 307.5957637 -122.671875 310.625 C-114.277139 316.63098998 -104.77258784 319.90534718 -95 323 C-94.00392507 328.8170776 -93.81671123 334.47927631 -93.8125 340.375 C-93.80025391 341.26960938 -93.78800781 342.16421875 -93.77539062 343.0859375 C-93.76008407 350.10654422 -93.77666183 357.23584984 -98.3125 362.875 C-106.45470109 369.31301947 -113.70037449 370.34696532 -123.8125 370.3125 C-125.21338867 370.33666992 -125.21338867 370.33666992 -126.64257812 370.36132812 C-135.4301543 370.36742637 -144.14937432 368.87196487 -151 363 C-154.26648935 357.98994603 -155.9021085 353.51972274 -157.06640625 347.6875 C-157.31312828 346.51344604 -157.31312828 346.51344604 -157.56483459 345.31567383 C-159.29175675 336.92055324 -160.66441962 328.47406377 -161.9375 320 C-162.12451477 318.77141266 -162.12451477 318.77141266 -162.31530762 317.51800537 C-164.35384417 304.0816115 -166.13030899 290.61792209 -167.75 277.125 C-167.8507785 276.29468262 -167.95155701 275.46436523 -168.0553894 274.60888672 C-170.69691745 252.68123471 -172.34456939 230.88485942 -172.26074219 208.78833008 C-172.24999159 205.43487536 -172.2607397 202.0819547 -172.2734375 198.72851562 C-172.28146007 184.06285189 -171.46945098 169.59077944 -170 155 C-167.54636944 155.97585727 -165.0977489 156.95900754 -162.66259766 157.98022461 C-126.85353673 172.83498111 -79.8476933 174.60777998 -43.8125 160.3125 C-29.96765251 154.07058571 -18.9946673 144.32440347 -13.1640625 130.14453125 C-12.77992188 129.10683594 -12.39578125 128.06914062 -12 127 C-11.30003906 125.14955078 -11.30003906 125.14955078 -10.5859375 123.26171875 C-4.31393263 105.35772133 -4.73879477 83.86955091 -12.7668457 66.55175781 C-19.87444934 52.1805583 -29.09076861 44.60208097 -44.296875 39.125 C-48.58298513 37.82289059 -52.8732737 36.75986847 -57.25 35.8125 C-57.96285156 35.6575708 -58.67570312 35.5026416 -59.41015625 35.34301758 C-72.61850283 32.68717994 -85.8546473 31.66154331 -99.30224609 31.73925781 C-101.49995475 31.74999978 -103.69684657 31.73926306 -105.89453125 31.7265625 C-116.05245988 31.7181032 -125.94173418 32.61057939 -136 34 C-122.61450796 15.39226014 -106.01011716 1.91343424 -84 -5 C-83.2575 -5.27328125 -82.515 -5.5465625 -81.75 -5.828125 C-56.15872285 -15.15066168 -24.29726971 -11.50013122 0 0 Z " fill="#DA2127" transform="translate(293,63)"/>
<path d="M0 0 C0.33 0 0.66 0 1 0 C16.50157879 80.85926658 10.7538094 165.2744365 5 246.875 C4.93403374 247.81341988 4.86806747 248.75183975 4.80010223 249.71869659 C4.41509528 255.18599078 4.02392206 260.65279258 3.62434006 266.11904144 C3.50234811 267.79094305 3.38141281 269.46292219 3.26167679 271.13498688 C2.6598587 279.5034468 1.9806401 287.86359494 1.09765625 296.20751953 C1.03299667 296.88922651 0.9683371 297.57093349 0.90171814 298.27329826 C0.12228554 305.19103071 -2.17271453 310.88875656 -7 316 C-19.5140241 324.36396509 -37.48554867 323.28617142 -51.83203125 321.53125 C-59.72984927 319.82799785 -66.07098931 316.30452488 -71.4375 310.25 C-75.11678245 302.5970925 -75.28992157 294.30859473 -75.30859375 285.953125 C-75.33372816 283.87109064 -75.35912651 281.78905945 -75.38476562 279.70703125 C-75.41358474 276.46598978 -75.43764388 273.22500289 -75.45629883 269.98388672 C-75.47795679 266.82753567 -75.51736168 263.67177219 -75.55859375 260.515625 C-75.55876747 259.06703094 -75.55876747 259.06703094 -75.5589447 257.58917236 C-75.63606508 252.33799933 -75.97503492 248.49718297 -79 244 C-82.36511294 241.75659137 -83.51578524 241.74207535 -87.45507812 241.71289062 C-88.57474976 241.69947632 -89.69442139 241.68606201 -90.84802246 241.67224121 C-92.06348755 241.66696411 -93.27895264 241.66168701 -94.53125 241.65625 C-96.42164001 241.6343158 -96.42164001 241.6343158 -98.35021973 241.61193848 C-102.40011734 241.56535348 -106.44996188 241.53096967 -110.5 241.5 C-142.15328136 241.25421055 -142.15328136 241.25421055 -156.42773438 239.41992188 C-159.33882672 239.0777213 -162.07654398 238.91175547 -165 239 C-165.37046197 242.5957637 -165.37046197 242.5957637 -163.671875 245.625 C-155.277139 251.63098998 -145.77258784 254.90534718 -136 258 C-135.00392507 263.8170776 -134.81671123 269.47927631 -134.8125 275.375 C-134.80025391 276.26960938 -134.78800781 277.16421875 -134.77539062 278.0859375 C-134.76008407 285.10654422 -134.77666183 292.23584984 -139.3125 297.875 C-147.45470109 304.31301947 -154.70037449 305.34696532 -164.8125 305.3125 C-166.21338867 305.33666992 -166.21338867 305.33666992 -167.64257812 305.36132812 C-176.4301543 305.36742637 -185.14937432 303.87196487 -192 298 C-195.26648935 292.98994603 -196.9021085 288.51972274 -198.06640625 282.6875 C-198.31312828 281.51344604 -198.31312828 281.51344604 -198.56483459 280.31567383 C-200.29175675 271.92055324 -201.66441962 263.47406377 -202.9375 255 C-203.06217651 254.18094177 -203.18685303 253.36188354 -203.31530762 252.51800537 C-205.35384417 239.0816115 -207.13030899 225.61792209 -208.75 212.125 C-208.8507785 211.29468262 -208.95155701 210.46436523 -209.0553894 209.60888672 C-209.76179533 203.74492345 -210.40720757 197.87653113 -211 192 C-211.09528992 191.0566983 -211.19057983 190.11339661 -211.28875732 189.14151001 C-212.92866119 172.38162362 -213.24829991 155.76793834 -213.125 138.9375 C-213.1149297 136.49805063 -213.10581115 134.05859715 -213.09765625 131.61914062 C-213.07601055 125.7460011 -213.04286699 119.87302109 -213 114 C-212.67 114 -212.34 114 -212 114 C-212.02731201 114.77786865 -212.05462402 115.5557373 -212.08276367 116.35717773 C-212.72620578 141.47723151 -207.62301498 163.21608089 -189.86767578 182.29077148 C-168.71519035 203.07671372 -134.47431065 205.39415979 -106.57696533 205.23980713 C-96.81087875 205.13732515 -87.51396423 204.15778212 -78 202 C-76.76765625 201.73316406 -75.5353125 201.46632813 -74.265625 201.19140625 C-56.3042695 196.70106738 -41.7571198 186.86563812 -32 171 C-25.01175115 158.65757045 -20.59072761 145.66286496 -17 132 C-16.7839209 131.21028809 -16.5678418 130.42057617 -16.34521484 129.60693359 C-11.94447094 113.41765123 -9.63332055 96.86211077 -7.32327271 80.27355957 C-6.98290106 77.87974411 -6.62284711 75.48936296 -6.26147461 73.09863281 C-3.97841343 57.65952778 -2.84841938 42.19086694 -1.8125 26.625 C-1.63413719 24.02729741 -1.45510459 21.42964072 -1.27539062 18.83203125 C-0.84256434 12.55519381 -0.41790649 6.27784755 0 0 Z " fill="#99111C" transform="translate(334,128)"/>
<path d="M0 0 C2.59070797 0.01606414 5.17984684 0.0000492 7.77050781 -0.01904297 C27.95955173 -0.04477941 52.47971056 1.24226008 68.22363281 15.39111328 C77.38608233 24.75231441 78.81419964 35.59648677 78.69628906 48.18554688 C78.30813112 60.58339585 74.91922359 72.01730534 66.41113281 81.38720703 C50.31862513 96.47393298 26.37515961 97.81119854 5.47363281 97.76611328 C4.18404663 97.76629456 4.18404663 97.76629456 2.8684082 97.76647949 C-11.34772913 97.73807628 -24.89316456 96.61226736 -38.77636719 93.39111328 C-39.50629883 93.23626465 -40.23623047 93.08141602 -40.98828125 92.921875 C-53.80479606 90.2013031 -68.47661877 85.15076346 -76.41699219 74.10986328 C-82.73567002 64.17174863 -85.56123309 54.84149537 -83.08496094 43.11767578 C-80.41631814 33.53735979 -76.18624935 26.07808011 -68.77636719 19.39111328 C-68.33421875 18.93349609 -67.89207031 18.47587891 -67.43652344 18.00439453 C-50.69171762 1.7708805 -21.97486458 -0.16115452 0 0 Z " fill="#83DBEE" transform="translate(187.7763671875,114.60888671875)"/>
<path d="M0 0 C11.89334769 -0.09512822 26.4752797 0.96840457 35.609375 9.50390625 C49.87022227 28.25272604 45.23162196 71.45693145 45.25 93.8125 C45.25133942 94.78679962 45.25267883 95.76109924 45.25405884 96.7649231 C45.23591117 158.06084557 45.23591117 158.06084557 32.40234375 172.83984375 C24.54278815 180.16229988 15.12524345 181.04949492 4.7578125 181.01953125 C3.49340332 181.01671143 2.22899414 181.0138916 0.92626953 181.01098633 C-0.03939941 181.00736084 -1.00506836 181.00373535 -2 181 C-1.94006866 180.07281662 -1.88013733 179.14563324 -1.81838989 178.19035339 C-0.26096277 153.33461686 0.19956779 128.50995666 0.1953125 103.61328125 C0.19518378 102.86018724 0.19505507 102.10709323 0.19492245 101.33117819 C0.19163848 92.03412236 0.17098785 82.7371373 0.14405322 73.44012344 C0.12120909 65.4079364 0.11058015 57.37574488 0.10064721 49.34353316 C0.08005022 32.89565063 0.04515186 16.44783393 0 0 Z " fill="#99111C" transform="translate(362,170)"/>
<path d="M0 0 C7.84850312 2.45265723 13.21893006 7.65884894 17.67578125 14.36328125 C21.3927738 21.76437261 22.52821288 28.50520677 22.4375 36.75 C22.42614014 38.19971191 22.42614014 38.19971191 22.41455078 39.67871094 C22.12881089 52.1302959 18.72925998 63.58911239 10.1875 72.99609375 C-5.90500768 88.0828197 -29.8484732 89.42008526 -50.75 89.375 C-52.03958618 89.37518127 -52.03958618 89.37518127 -53.35522461 89.37536621 C-67.57136194 89.346963 -81.11679737 88.22115408 -95 85 C-95.72993164 84.84515137 -96.45986328 84.69030273 -97.21191406 84.53076172 C-110.02842887 81.81018982 -124.70025158 76.75965018 -132.640625 65.71875 C-138.8390715 55.96973706 -141.59105524 46.72669694 -139.484375 35.171875 C-139.32453125 34.45515625 -139.1646875 33.7384375 -139 33 C-138.67 33 -138.34 33 -138 33 C-137.6596875 34.8253125 -137.6596875 34.8253125 -137.3125 36.6875 C-135.97241787 41.86550441 -133.54484771 44.27879595 -129.1171875 47.2734375 C-123.59446814 50.44852006 -117.85984183 51.92595486 -111.6875 53.25 C-110.93001465 53.41314697 -110.1725293 53.57629395 -109.39208984 53.74438477 C-96.29116041 56.3372483 -82.97010271 56.18639569 -69.67211914 56.18530273 C-66.70379254 56.18748801 -63.73583933 56.20570325 -60.76757812 56.22460938 C-44.97898065 56.27203099 -29.97101478 55.56773277 -15 50 C-14.22914063 49.71382812 -13.45828125 49.42765625 -12.6640625 49.1328125 C-5.61099952 46.07918753 -0.91347055 40.44451902 2.4375 33.625 C4.20382169 28.72954807 4.38365522 23.96382533 4.4375 18.8125 C4.44773193 18.05211426 4.45796387 17.29172852 4.46850586 16.50830078 C4.38706888 11.28608341 3.29302181 7.68523286 1 3 C0.67 2.01 0.34 1.02 0 0 Z " fill="#387D95" transform="translate(244,123)"/>
<path d="M0 0 C168.96 0 337.92 0 512 0 C512 168.96 512 337.92 512 512 C343.04 512 174.08 512 0 512 C0 343.04 0 174.08 0 0 Z M1 1 C1 169.3 1 337.6 1 511 C169.3 511 337.6 511 511 511 C511 342.7 511 174.4 511 1 C342.7 1 174.4 1 1 1 Z " fill="#8B8788" transform="translate(0,0)"/>
<path d="M0 0 C1.875 2.625 1.875 2.625 2.375 5.625 C1.78573295 9.16060233 1.19423602 10.87090722 -1.125 13.625 C-12.19686541 20.72770611 -25.65641852 21.1237352 -38.4206543 21.01611328 C-40.68924815 20.99998757 -42.95606799 21.0160826 -45.22460938 21.03515625 C-55.17812415 21.04921546 -65.9385304 20.80048919 -74.875 15.875 C-77.125 13.625 -77.125 13.625 -78.375 10.3125 C-78.07904532 5.94716844 -77.17558021 4.34282644 -74.19140625 1.26171875 C-67.86579021 -3.7485518 -59.99990669 -6.14365095 -52.125 -7.375 C-51.47789062 -7.48585938 -50.83078125 -7.59671875 -50.1640625 -7.7109375 C-34.11958022 -9.98544265 -13.38866083 -10.17538223 0 0 Z " fill="#FCFEFE" transform="translate(203.125,135.375)"/>
<path d="M0 0 C11.18196045 -0.23658936 24.8085898 0.97127455 34 8 C39.12188237 13.97949988 40.14913139 19.24516761 40 27 C39.24493164 27.01981934 38.48986328 27.03963867 37.71191406 27.06005859 C34.22431407 27.15649239 30.73721903 27.26568279 27.25 27.375 C26.06277344 27.4059375 24.87554687 27.436875 23.65234375 27.46875 C16.69467247 27.69687037 10.05595319 28.33721808 3.22167969 29.68212891 C2.48852539 29.78702637 1.75537109 29.89192383 1 30 C0 29 0 29 -0.11352539 26.22436523 C-0.10828857 25.01466064 -0.10305176 23.80495605 -0.09765625 22.55859375 C-0.09443359 21.25341797 -0.09121094 19.94824219 -0.08789062 18.60351562 C-0.07953401 17.2148431 -0.07106905 15.82617123 -0.0625 14.4375 C-0.05748666 13.04492344 -0.05292347 11.65234519 -0.04882812 10.25976562 C-0.03699434 6.8398013 -0.0205088 3.41992156 0 0 Z " fill="#D82127" transform="translate(362,170)"/>
<path d="M0 0 C0.33 0 0.66 0 1 0 C1.01458252 0.87213135 1.02916504 1.7442627 1.04418945 2.64282227 C1.10557372 5.90659996 1.17978388 9.16957957 1.26245117 12.43286133 C1.29551994 13.8399778 1.32360704 15.24722116 1.34643555 16.65454102 C1.38031799 18.68820824 1.43264218 20.72073135 1.48828125 22.75390625 C1.51446533 23.97408447 1.54064941 25.1942627 1.56762695 26.45141602 C1.93445059 29.46202106 2.36990754 31.10652422 3.59448242 33.76538086 C5 37 5 37 4 40 C4 39.34 4 38.68 4 38 C3.01 38.495 3.01 38.495 2 39 C1.52998967 42.27555608 1.52998967 42.27555608 1.375 46.0625 C1.30023438 47.35285156 1.22546875 48.64320313 1.1484375 49.97265625 C1.09945312 50.97167969 1.05046875 51.97070312 1 53 C0.67 53 0.34 53 0 53 C0 35.51 0 18.02 0 0 Z " fill="#8A121B" transform="translate(121,242)"/>
<path d="M0 0 C0.33 0 0.66 0 1 0 C2.32719886 6.96779403 2.08825381 13.92988911 2 21 C0 20 0 20 -0.6171875 18.27734375 C-1.05558641 15.66931759 -1.13233628 13.2072284 -1.125 10.5625 C-1.12886719 9.17224609 -1.12886719 9.17224609 -1.1328125 7.75390625 C-1.00344052 5.07134019 -0.59782834 2.61431282 0 0 Z " fill="#3B788B" transform="translate(105,156)"/>
<path d="" fill="#000000" transform="translate(0,0)"/>
</svg>
